<svg width="22" height="21" viewBox="0 0 22 21" fill="none" xmlns="http://www.w3.org/2000/svg">
<path d="M8.40864 13.3586L2.00846 13.3725C0.903861 13.3749 0.00651664 12.4814 0.00411515 11.3769L-0.00046022 9.27249C-0.00102812 9.01129 0.0496097 8.75248 0.148484 8.51067L3.22654 0.989059C3.38002 0.614024 3.74469 0.368731 4.14989 0.36785L20.9801 0.331258C21.5324 0.330057 21.9811 0.776782 21.9823 1.32908L22.0041 11.3291C22.0053 11.8813 21.5585 12.33 21.0062 12.3312L17.5244 12.3388C17.1995 12.3395 16.8952 12.498 16.7084 12.7639L11.2718 20.5014C11.1297 20.7035 10.8613 20.7716 10.64 20.6616L8.82396 19.7585C7.77122 19.235 7.22554 18.0486 7.51306 16.9085L8.40864 13.3586ZM1.50411 11.3739L4.15334 1.95535L4.82394 2.36639L4.50084 9.86741L2.00411 11.3725L8.4043 11.3586C23.003 10.8272 12.0622 15.0866 11.7431 16.3517L11.0099 14.0044C10.9523 14.2324 12.6316 15.2446 12.8423 15.3493L10.3764 18.2969L13.5073 12.8478C13.7565 12.4933 1.14117 11.5879 1.50411 11.3739ZM18.0019 10.3378L20.0019 10.3334L19.9845 2.33343L17.9845 2.33778L18.0019 10.3378Z" fill="#1D4D39"/>
</svg>
