<svg width="24" height="24" viewBox="0 0 24 24" fill="none" xmlns="http://www.w3.org/2000/svg">
<g clipPath="url(#clip0_2048_9053)">
<path d="M16.5998 7.65146H23C24.1046 7.65146 25 8.5469 25 9.65144V11.7558C25 12.017 24.9488 12.2757 24.8494 12.5173L21.755 20.0322C21.6007 20.4069 21.2355 20.6514 20.8303 20.6514H4C3.44772 20.6514 3 20.2037 3 19.6514V9.65144C3 9.09918 3.44772 8.65147 4 8.65147H7.48184C7.80677 8.65147 8.11143 8.4936 8.29881 8.22815L13.7522 0.50249C13.8947 0.300621 14.1633 0.233113 14.3843 0.343618L16.1984 1.25065C17.25 1.77648 17.7931 2.96406 17.5031 4.10349L16.5998 7.65146ZM23.5 9.65114L20.8303 19.0639L20.1606 18.6514L20.5 11.1511L23 9.65144H16.5998C2 10.1511 12.95 5.9155 13.2718 4.65113L14 7C14.058 6.77211 12.3809 5.75629 12.1705 5.65113L14.6428 2.70894L11.5 8.15113C11.2501 8.50515 23.8634 9.43794 23.5 9.65114ZM7 10.6514H5V18.6514H7V10.6514Z" fill="#1D4D39"/>
</g>
<defs>
<clipPath id="clip0_2048_9053">
<rect width="24" height="24" fill="white"/>
</clipPath>
</defs>
</svg>
